<?xml version="1.0" ?><svg viewBox="0 0 128 128" xmlns="http://www.w3.org/2000/svg"><defs><style>.cls-1{fill:none;}.cls-1,.cls-2{stroke:#0088ce;stroke-miterlimit:10;stroke-width:6px;}.cls-2{fill:#66b8e2;}</style></defs><title/><g data-name="Layer 5" id="Layer_5"><polyline class="cls-1" points="101.07 68.4 101.07 108.9 26.93 108.9 26.93 68.4"/><rect class="cls-2" height="31.72" width="20.69" x="39.09" y="77.18"/><rect class="cls-2" height="20.69" width="20.69" x="70.4" y="78.31"/><path class="cls-1" d="M20.88,48.16H42.44V58.94a10.78,10.78,0,0,1-21.56,0Z"/><path class="cls-1" d="M42.44,48.16H64V58.94a10.78,10.78,0,0,1-21.56,0Z"/><path class="cls-1" d="M64,48.16H85.59V58.94a10.78,10.78,0,0,1-21.56,0Z"/><path class="cls-1" d="M85.59,48.16h21.56V58.94a10.78,10.78,0,0,1-21.56,0Z"/><rect class="cls-1" height="22.51" width="86.24" x="20.88" y="25.65"/></g></svg>